<svg width="24" height="24" viewBox="0 0 24 24" fill="none" xmlns="http://www.w3.org/2000/svg">
<path d="M12.3806 14.4465L12.3808 14.4465L20.2499 9.81551V17.4C20.2499 17.8376 20.0761 18.2573 19.7666 18.5667C19.4572 18.8762 19.0375 19.05 18.5999 19.05H5.3999C4.9623 19.05 4.54261 18.8762 4.23318 18.5667C3.92374 18.2573 3.7499 17.8376 3.7499 17.4V9.81784L11.6191 14.4465L11.6254 14.4502L11.632 14.4533L11.7304 14.4989L11.7302 14.4993L11.7417 14.5035C11.8457 14.5419 11.9571 14.5567 12.0676 14.5468C12.178 14.537 12.285 14.5027 12.3806 14.4465ZM20.8273 5.5726C20.2366 4.98186 19.4353 4.64999 18.5999 4.64999H5.3999C4.56447 4.64999 3.76326 4.98186 3.17252 5.5726C2.58178 6.16334 2.2499 6.96456 2.2499 7.79999V17.4C2.2499 18.2354 2.58178 19.0366 3.17252 19.6274C3.76326 20.2181 4.56447 20.55 5.3999 20.55H18.5999C19.4353 20.55 20.2366 20.2181 20.8273 19.6274C21.418 19.0366 21.7499 18.2354 21.7499 17.4V7.79999C21.7499 6.96456 21.418 6.16334 20.8273 5.5726ZM5.3999 6.14999H18.5999C19.0375 6.14999 19.4572 6.32383 19.7666 6.63326C20.0761 6.9427 20.2499 7.36238 20.2499 7.79999V8.07422L11.9999 12.9299L3.7499 8.0766V7.79999C3.7499 7.36238 3.92374 6.9427 4.23318 6.63326C4.54261 6.32383 4.9623 6.14999 5.3999 6.14999Z" fill="#FA8B02" stroke="#FA8B02" stroke-width="0.3"/>
</svg>
